<svg width="177" height="186" viewBox="0 0 177 186" fill="none" xmlns="http://www.w3.org/2000/svg">
<path d="M0 56.2481L43.2053 56.2505L43.2077 47.6582H176.188L145.599 79.4272L76.8408 79.4201L76.824 102.964L121.175 102.976L91.6015 133.998L76.824 133.987L76.8193 148.948L43.2149 182.437L43.1528 132.863L60.1938 132.815L60.1484 129.197L0 129.182V116.532L43.2053 116.423L43.2077 102.971H53.9261V98.8588H15.871V86.5262L43.2053 86.5238L43.2125 73.0701L65.7451 73.0677L65.7475 68.211L0 68.1943V56.2481Z" fill="white"/>
<path d="M70.1218 164.415C74.1737 165.121 78.3402 165.488 82.5903 165.488C122.596 165.488 155.028 132.894 155.028 92.6854C155.028 88.0124 154.591 83.442 153.753 79.0146L169.302 63.8267C172.253 72.9509 173.848 82.6977 173.848 92.8238C173.848 144.091 132.935 185.65 82.4638 185.65C72.2062 185.65 62.3403 183.932 53.1357 180.767L70.1194 164.413L70.1218 164.415Z" fill="white"/>
<path d="M24.0536 49.7956C37.2289 31.664 58.5415 19.8848 82.5903 19.8848C102.64 19.8848 120.789 28.0716 133.904 41.3011L158.454 41.2439C142.061 16.3735 114.146 0 82.4685 0C47.2716 0 16.721 20.214 1.4541 49.8338L24.0536 49.7956Z" fill="white"/>
<path d="M37.1024 149.349C32.1097 145.296 27.6662 140.589 23.8961 135.361L1.34668 135.606C9.52692 151.579 22.1435 164.832 37.5393 173.678L37.1024 149.346V149.349Z" fill="white"/>
</svg>
