<svg width="385" height="84" viewBox="0 0 385 84" fill="none" xmlns="http://www.w3.org/2000/svg">
<path d="M0 25.45L19.5316 25.453V21.564H79.6463L65.8157 35.94L34.7361 35.937L34.7272 46.5879L54.7773 46.5939L41.4086 60.6302L34.7272 60.6272L34.7242 67.395L19.5346 82.5489L19.5078 60.1176L27.2114 60.0967L27.1905 58.4577L0 58.4517V52.7269L19.5316 52.6793V46.5939L24.3773 46.5909V44.7313H7.17312V39.1496H19.5316L19.5346 33.0612H29.7206V30.8649L0 30.8559V25.45Z" fill="#1A4A9D"/>
<path d="M31.6992 74.3953C33.529 74.7142 35.4124 74.8811 37.3346 74.8811C55.4179 74.8811 70.08 60.1325 70.08 41.939C70.08 39.8231 69.8833 37.7579 69.5048 35.7523L76.5349 28.8801C77.87 33.0076 78.5912 37.4181 78.5912 42.0015C78.5912 65.1987 60.0967 84.0032 37.281 84.0032C32.6439 84.0032 28.1857 83.2254 24.0225 81.7919L31.6992 74.3923V74.3953Z" fill="#545554"/>
<path d="M10.8743 22.5326C16.8285 14.3284 26.4632 8.99992 37.3346 8.99992C46.3971 8.99992 54.6014 12.7042 60.5318 18.6912L71.6297 18.6644C64.2182 7.40855 51.6004 0 37.278 0C21.3672 0 7.55739 9.14595 0.658447 22.5505L10.8743 22.5326Z" fill="#545554"/>
<path d="M16.7722 67.5768C14.5163 65.744 12.5077 63.6133 10.8031 61.2471L0.611084 61.3573C4.3094 68.5841 10.0133 74.5801 16.9719 78.5853L16.7752 67.5768H16.7722Z" fill="#545554"/>
<rect x="92.7708" y="20.7712" width="292.229" height="42.4606" rx="12" fill="#1A4A9D"/>
<path d="M131.045 41.3015H137.765V43.9015H131.045V41.3015ZM131.285 49.0015H128.045V35.0015H138.625V37.6015H131.285V49.0015ZM145.465 49.1615C144.318 49.1615 143.298 48.9215 142.405 48.4415C141.525 47.9615 140.825 47.3081 140.305 46.4815C139.798 45.6415 139.545 44.6881 139.545 43.6215C139.545 42.5415 139.798 41.5881 140.305 40.7615C140.825 39.9215 141.525 39.2681 142.405 38.8015C143.298 38.3215 144.318 38.0815 145.465 38.0815C146.598 38.0815 147.612 38.3215 148.505 38.8015C149.398 39.2681 150.098 39.9148 150.605 40.7415C151.112 41.5681 151.365 42.5281 151.365 43.6215C151.365 44.6881 151.112 45.6415 150.605 46.4815C150.098 47.3081 149.398 47.9615 148.505 48.4415C147.612 48.9215 146.598 49.1615 145.465 49.1615ZM145.465 46.6015C145.985 46.6015 146.452 46.4815 146.865 46.2415C147.278 46.0015 147.605 45.6615 147.845 45.2215C148.085 44.7681 148.205 44.2348 148.205 43.6215C148.205 42.9948 148.085 42.4615 147.845 42.0215C147.605 41.5815 147.278 41.2415 146.865 41.0015C146.452 40.7615 145.985 40.6415 145.465 40.6415C144.945 40.6415 144.478 40.7615 144.065 41.0015C143.652 41.2415 143.318 41.5815 143.065 42.0215C142.825 42.4615 142.705 42.9948 142.705 43.6215C142.705 44.2348 142.825 44.7681 143.065 45.2215C143.318 45.6615 143.652 46.0015 144.065 46.2415C144.478 46.4815 144.945 46.6015 145.465 46.6015ZM153.45 49.0015V38.2415H156.43V41.2815L156.01 40.4015C156.33 39.6415 156.844 39.0681 157.55 38.6815C158.257 38.2815 159.117 38.0815 160.13 38.0815V40.9615C159.997 40.9481 159.877 40.9415 159.77 40.9415C159.664 40.9281 159.55 40.9215 159.43 40.9215C158.577 40.9215 157.884 41.1681 157.35 41.6615C156.83 42.1415 156.57 42.8948 156.57 43.9215V49.0015H153.45ZM167.248 49.1615C166.021 49.1615 164.941 48.9215 164.008 48.4415C163.088 47.9615 162.374 47.3081 161.868 46.4815C161.361 45.6415 161.108 44.6881 161.108 43.6215C161.108 42.5415 161.354 41.5881 161.848 40.7615C162.354 39.9215 163.041 39.2681 163.908 38.8015C164.774 38.3215 165.754 38.0815 166.848 38.0815C167.901 38.0815 168.848 38.3081 169.688 38.7615C170.541 39.2015 171.214 39.8415 171.708 40.6815C172.201 41.5081 172.448 42.5015 172.448 43.6615C172.448 43.7815 172.441 43.9215 172.428 44.0815C172.414 44.2281 172.401 44.3681 172.388 44.5015H163.648V42.6815H170.748L169.548 43.2215C169.548 42.6615 169.434 42.1748 169.208 41.7615C168.981 41.3481 168.668 41.0281 168.268 40.8015C167.868 40.5615 167.401 40.4415 166.868 40.4415C166.334 40.4415 165.861 40.5615 165.448 40.8015C165.048 41.0281 164.734 41.3548 164.508 41.7815C164.281 42.1948 164.168 42.6881 164.168 43.2615V43.7415C164.168 44.3281 164.294 44.8481 164.548 45.3015C164.814 45.7415 165.181 46.0815 165.648 46.3215C166.128 46.5481 166.688 46.6615 167.328 46.6615C167.901 46.6615 168.401 46.5748 168.828 46.4015C169.268 46.2281 169.668 45.9681 170.028 45.6215L171.688 47.4215C171.194 47.9815 170.574 48.4148 169.828 48.7215C169.081 49.0148 168.221 49.1615 167.248 49.1615ZM179.725 49.1615C178.565 49.1615 177.531 48.9281 176.625 48.4615C175.718 47.9815 175.005 47.3215 174.485 46.4815C173.978 45.6415 173.725 44.6881 173.725 43.6215C173.725 42.5415 173.978 41.5881 174.485 40.7615C175.005 39.9215 175.718 39.2681 176.625 38.8015C177.531 38.3215 178.565 38.0815 179.725 38.0815C180.858 38.0815 181.845 38.3215 182.685 38.8015C183.525 39.2681 184.145 39.9415 184.545 40.8215L182.125 42.1215C181.845 41.6148 181.491 41.2415 181.065 41.0015C180.651 40.7615 180.198 40.6415 179.705 40.6415C179.171 40.6415 178.691 40.7615 178.265 41.0015C177.838 41.2415 177.498 41.5815 177.245 42.0215C177.005 42.4615 176.885 42.9948 176.885 43.6215C176.885 44.2481 177.005 44.7815 177.245 45.2215C177.498 45.6615 177.838 46.0015 178.265 46.2415C178.691 46.4815 179.171 46.6015 179.705 46.6015C180.198 46.6015 180.651 46.4881 181.065 46.2615C181.491 46.0215 181.845 45.6415 182.125 45.1215L184.545 46.4415C184.145 47.3081 183.525 47.9815 182.685 48.4615C181.845 48.9281 180.858 49.1615 179.725 49.1615ZM192.941 49.0015V46.9015L192.741 46.4415V42.6815C192.741 42.0148 192.534 41.4948 192.121 41.1215C191.721 40.7481 191.101 40.5615 190.261 40.5615C189.688 40.5615 189.121 40.6548 188.561 40.8415C188.014 41.0148 187.548 41.2548 187.161 41.5615L186.041 39.3815C186.628 38.9681 187.334 38.6481 188.161 38.4215C188.988 38.1948 189.828 38.0815 190.681 38.0815C192.321 38.0815 193.594 38.4681 194.501 39.2415C195.408 40.0148 195.861 41.2215 195.861 42.8615V49.0015H192.941ZM189.661 49.1615C188.821 49.1615 188.101 49.0215 187.501 48.7415C186.901 48.4481 186.441 48.0548 186.121 47.5615C185.801 47.0681 185.641 46.5148 185.641 45.9015C185.641 45.2615 185.794 44.7015 186.101 44.2215C186.421 43.7415 186.921 43.3681 187.601 43.1015C188.281 42.8215 189.168 42.6815 190.261 42.6815H193.121V44.5015H190.601C189.868 44.5015 189.361 44.6215 189.081 44.8615C188.814 45.1015 188.681 45.4015 188.681 45.7615C188.681 46.1615 188.834 46.4815 189.141 46.7215C189.461 46.9481 189.894 47.0615 190.441 47.0615C190.961 47.0615 191.428 46.9415 191.841 46.7015C192.254 46.4481 192.554 46.0815 192.741 45.6015L193.221 47.0415C192.994 47.7348 192.581 48.2615 191.981 48.6215C191.381 48.9815 190.608 49.1615 189.661 49.1615ZM202.305 49.1615C201.385 49.1615 200.498 49.0548 199.645 48.8415C198.805 48.6148 198.138 48.3348 197.645 48.0015L198.685 45.7615C199.178 46.0681 199.758 46.3215 200.425 46.5215C201.105 46.7081 201.772 46.8015 202.425 46.8015C203.145 46.8015 203.652 46.7148 203.945 46.5415C204.252 46.3681 204.405 46.1281 204.405 45.8215C204.405 45.5681 204.285 45.3815 204.045 45.2615C203.818 45.1281 203.512 45.0281 203.125 44.9615C202.738 44.8948 202.312 44.8281 201.845 44.7615C201.392 44.6948 200.932 44.6081 200.465 44.5015C199.998 44.3815 199.572 44.2081 199.185 43.9815C198.798 43.7548 198.485 43.4481 198.245 43.0615C198.018 42.6748 197.905 42.1748 197.905 41.5615C197.905 40.8815 198.098 40.2815 198.485 39.7615C198.885 39.2415 199.458 38.8348 200.205 38.5415C200.952 38.2348 201.845 38.0815 202.885 38.0815C203.618 38.0815 204.365 38.1615 205.125 38.3215C205.885 38.4815 206.518 38.7148 207.025 39.0215L205.985 41.2415C205.465 40.9348 204.938 40.7281 204.405 40.6215C203.885 40.5015 203.378 40.4415 202.885 40.4415C202.192 40.4415 201.685 40.5348 201.365 40.7215C201.045 40.9081 200.885 41.1481 200.885 41.4415C200.885 41.7081 200.998 41.9081 201.225 42.0415C201.465 42.1748 201.778 42.2815 202.165 42.3615C202.552 42.4415 202.972 42.5148 203.425 42.5815C203.892 42.6348 204.358 42.7215 204.825 42.8415C205.292 42.9615 205.712 43.1348 206.085 43.3615C206.472 43.5748 206.785 43.8748 207.025 44.2615C207.265 44.6348 207.385 45.1281 207.385 45.7415C207.385 46.4081 207.185 47.0015 206.785 47.5215C206.385 48.0281 205.805 48.4281 205.045 48.7215C204.298 49.0148 203.385 49.1615 202.305 49.1615ZM213.71 49.1615C212.443 49.1615 211.457 48.8415 210.75 48.2015C210.043 47.5481 209.69 46.5815 209.69 45.3015V35.8615H212.81V45.2615C212.81 45.7148 212.93 46.0681 213.17 46.3215C213.41 46.5615 213.737 46.6815 214.15 46.6815C214.643 46.6815 215.063 46.5481 215.41 46.2815L216.25 48.4815C215.93 48.7081 215.543 48.8815 215.09 49.0015C214.65 49.1081 214.19 49.1615 213.71 49.1615ZM208.03 40.8815V38.4815H215.49V40.8815H208.03ZM226.865 40.6415H233.605V43.1615H226.865V40.6415ZM227.105 46.4015H234.725V49.0015H223.885V35.0015H234.465V37.6015H227.105V46.4015ZM243.623 38.0815C244.477 38.0815 245.237 38.2548 245.903 38.6015C246.583 38.9348 247.117 39.4548 247.503 40.1615C247.89 40.8548 248.083 41.7481 248.083 42.8415V49.0015H244.963V43.3215C244.963 42.4548 244.77 41.8148 244.383 41.4015C244.01 40.9881 243.477 40.7815 242.783 40.7815C242.29 40.7815 241.843 40.8881 241.443 41.1015C241.057 41.3015 240.75 41.6148 240.523 42.0415C240.31 42.4681 240.203 43.0148 240.203 43.6815V49.0015H237.083V38.2415H240.063V41.2215L239.503 40.3215C239.89 39.6015 240.443 39.0481 241.163 38.6615C241.883 38.2748 242.703 38.0815 243.623 38.0815ZM256.05 53.0415C255.036 53.0415 254.056 52.9148 253.11 52.6615C252.176 52.4215 251.396 52.0548 250.77 51.5615L252.01 49.3215C252.463 49.6948 253.036 49.9881 253.73 50.2015C254.436 50.4281 255.13 50.5415 255.81 50.5415C256.916 50.5415 257.716 50.2948 258.21 49.8015C258.716 49.3081 258.97 48.5748 258.97 47.6015V45.9815L259.17 43.2815L259.13 40.5615V38.2415H262.09V47.2015C262.09 49.2015 261.57 50.6748 260.53 51.6215C259.49 52.5681 257.996 53.0415 256.05 53.0415ZM255.57 48.4815C254.57 48.4815 253.663 48.2681 252.85 47.8415C252.05 47.4015 251.403 46.7948 250.91 46.0215C250.43 45.2348 250.19 44.3215 250.19 43.2815C250.19 42.2281 250.43 41.3148 250.91 40.5415C251.403 39.7548 252.05 39.1481 252.85 38.7215C253.663 38.2948 254.57 38.0815 255.57 38.0815C256.476 38.0815 257.276 38.2681 257.97 38.6415C258.663 39.0015 259.203 39.5681 259.59 40.3415C259.976 41.1015 260.17 42.0815 260.17 43.2815C260.17 44.4681 259.976 45.4481 259.59 46.2215C259.203 46.9815 258.663 47.5481 257.97 47.9215C257.276 48.2948 256.476 48.4815 255.57 48.4815ZM256.19 45.9215C256.736 45.9215 257.223 45.8148 257.65 45.6015C258.076 45.3748 258.41 45.0615 258.65 44.6615C258.89 44.2615 259.01 43.8015 259.01 43.2815C259.01 42.7481 258.89 42.2881 258.65 41.9015C258.41 41.5015 258.076 41.1948 257.65 40.9815C257.223 40.7548 256.736 40.6415 256.19 40.6415C255.643 40.6415 255.156 40.7548 254.73 40.9815C254.303 41.1948 253.963 41.5015 253.71 41.9015C253.47 42.2881 253.35 42.7481 253.35 43.2815C253.35 43.8015 253.47 44.2615 253.71 44.6615C253.963 45.0615 254.303 45.3748 254.73 45.6015C255.156 45.8148 255.643 45.9215 256.19 45.9215ZM264.993 49.0015V38.2415H268.113V49.0015H264.993ZM266.553 36.7415C265.98 36.7415 265.513 36.5748 265.153 36.2415C264.793 35.9081 264.613 35.4948 264.613 35.0015C264.613 34.5081 264.793 34.0948 265.153 33.7615C265.513 33.4281 265.98 33.2615 266.553 33.2615C267.127 33.2615 267.593 33.4215 267.953 33.7415C268.313 34.0481 268.493 34.4481 268.493 34.9415C268.493 35.4615 268.313 35.8948 267.953 36.2415C267.607 36.5748 267.14 36.7415 266.553 36.7415ZM277.549 38.0815C278.402 38.0815 279.162 38.2548 279.829 38.6015C280.509 38.9348 281.042 39.4548 281.429 40.1615C281.816 40.8548 282.009 41.7481 282.009 42.8415V49.0015H278.889V43.3215C278.889 42.4548 278.696 41.8148 278.309 41.4015C277.936 40.9881 277.402 40.7815 276.709 40.7815C276.216 40.7815 275.769 40.8881 275.369 41.1015C274.982 41.3015 274.676 41.6148 274.449 42.0415C274.236 42.4681 274.129 43.0148 274.129 43.6815V49.0015H271.009V38.2415H273.989V41.2215L273.429 40.3215C273.816 39.6015 274.369 39.0481 275.089 38.6615C275.809 38.2748 276.629 38.0815 277.549 38.0815ZM290.255 49.1615C289.029 49.1615 287.949 48.9215 287.015 48.4415C286.095 47.9615 285.382 47.3081 284.875 46.4815C284.369 45.6415 284.115 44.6881 284.115 43.6215C284.115 42.5415 284.362 41.5881 284.855 40.7615C285.362 39.9215 286.049 39.2681 286.915 38.8015C287.782 38.3215 288.762 38.0815 289.855 38.0815C290.909 38.0815 291.855 38.3081 292.695 38.7615C293.549 39.2015 294.222 39.8415 294.715 40.6815C295.209 41.5081 295.455 42.5015 295.455 43.6615C295.455 43.7815 295.449 43.9215 295.435 44.0815C295.422 44.2281 295.409 44.3681 295.395 44.5015H286.655V42.6815H293.755L292.555 43.2215C292.555 42.6615 292.442 42.1748 292.215 41.7615C291.989 41.3481 291.675 41.0281 291.275 40.8015C290.875 40.5615 290.409 40.4415 289.875 40.4415C289.342 40.4415 288.869 40.5615 288.455 40.8015C288.055 41.0281 287.742 41.3548 287.515 41.7815C287.289 42.1948 287.175 42.6881 287.175 43.2615V43.7415C287.175 44.3281 287.302 44.8481 287.555 45.3015C287.822 45.7415 288.189 46.0815 288.655 46.3215C289.135 46.5481 289.695 46.6615 290.335 46.6615C290.909 46.6615 291.409 46.5748 291.835 46.4015C292.275 46.2281 292.675 45.9681 293.035 45.6215L294.695 47.4215C294.202 47.9815 293.582 48.4148 292.835 48.7215C292.089 49.0148 291.229 49.1615 290.255 49.1615ZM302.873 49.1615C301.646 49.1615 300.566 48.9215 299.633 48.4415C298.713 47.9615 297.999 47.3081 297.493 46.4815C296.986 45.6415 296.733 44.6881 296.733 43.6215C296.733 42.5415 296.979 41.5881 297.473 40.7615C297.979 39.9215 298.666 39.2681 299.533 38.8015C300.399 38.3215 301.379 38.0815 302.473 38.0815C303.526 38.0815 304.473 38.3081 305.313 38.7615C306.166 39.2015 306.839 39.8415 307.333 40.6815C307.826 41.5081 308.073 42.5015 308.073 43.6615C308.073 43.7815 308.066 43.9215 308.053 44.0815C308.039 44.2281 308.026 44.3681 308.013 44.5015H299.273V42.6815H306.373L305.173 43.2215C305.173 42.6615 305.059 42.1748 304.833 41.7615C304.606 41.3481 304.293 41.0281 303.893 40.8015C303.493 40.5615 303.026 40.4415 302.493 40.4415C301.959 40.4415 301.486 40.5615 301.073 40.8015C300.673 41.0281 300.359 41.3548 300.133 41.7815C299.906 42.1948 299.793 42.6881 299.793 43.2615V43.7415C299.793 44.3281 299.919 44.8481 300.173 45.3015C300.439 45.7415 300.806 46.0815 301.273 46.3215C301.753 46.5481 302.313 46.6615 302.953 46.6615C303.526 46.6615 304.026 46.5748 304.453 46.4015C304.893 46.2281 305.293 45.9681 305.653 45.6215L307.313 47.4215C306.819 47.9815 306.199 48.4148 305.453 48.7215C304.706 49.0148 303.846 49.1615 302.873 49.1615ZM310.15 49.0015V38.2415H313.13V41.2815L312.71 40.4015C313.03 39.6415 313.543 39.0681 314.25 38.6815C314.956 38.2815 315.816 38.0815 316.83 38.0815V40.9615C316.696 40.9481 316.576 40.9415 316.47 40.9415C316.363 40.9281 316.25 40.9215 316.13 40.9215C315.276 40.9215 314.583 41.1681 314.05 41.6615C313.53 42.1415 313.27 42.8948 313.27 43.9215V49.0015H310.15ZM318.704 49.0015V38.2415H321.824V49.0015H318.704ZM320.264 36.7415C319.691 36.7415 319.224 36.5748 318.864 36.2415C318.504 35.9081 318.324 35.4948 318.324 35.0015C318.324 34.5081 318.504 34.0948 318.864 33.7615C319.224 33.4281 319.691 33.2615 320.264 33.2615C320.838 33.2615 321.304 33.4215 321.664 33.7415C322.024 34.0481 322.204 34.4481 322.204 34.9415C322.204 35.4615 322.024 35.8948 321.664 36.2415C321.318 36.5748 320.851 36.7415 320.264 36.7415ZM331.26 38.0815C332.113 38.0815 332.873 38.2548 333.54 38.6015C334.22 38.9348 334.753 39.4548 335.14 40.1615C335.527 40.8548 335.72 41.7481 335.72 42.8415V49.0015H332.6V43.3215C332.6 42.4548 332.407 41.8148 332.02 41.4015C331.647 40.9881 331.113 40.7815 330.42 40.7815C329.927 40.7815 329.48 40.8881 329.08 41.1015C328.693 41.3015 328.387 41.6148 328.16 42.0415C327.947 42.4681 327.84 43.0148 327.84 43.6815V49.0015H324.72V38.2415H327.7V41.2215L327.14 40.3215C327.527 39.6015 328.08 39.0481 328.8 38.6615C329.52 38.2748 330.34 38.0815 331.26 38.0815ZM343.686 53.0415C342.673 53.0415 341.693 52.9148 340.746 52.6615C339.813 52.4215 339.033 52.0548 338.406 51.5615L339.646 49.3215C340.1 49.6948 340.673 49.9881 341.366 50.2015C342.073 50.4281 342.766 50.5415 343.446 50.5415C344.553 50.5415 345.353 50.2948 345.846 49.8015C346.353 49.3081 346.606 48.5748 346.606 47.6015V45.9815L346.806 43.2815L346.766 40.5615V38.2415H349.726V47.2015C349.726 49.2015 349.206 50.6748 348.166 51.6215C347.126 52.5681 345.633 53.0415 343.686 53.0415ZM343.206 48.4815C342.206 48.4815 341.3 48.2681 340.486 47.8415C339.686 47.4015 339.04 46.7948 338.546 46.0215C338.066 45.2348 337.826 44.3215 337.826 43.2815C337.826 42.2281 338.066 41.3148 338.546 40.5415C339.04 39.7548 339.686 39.1481 340.486 38.7215C341.3 38.2948 342.206 38.0815 343.206 38.0815C344.113 38.0815 344.913 38.2681 345.606 38.6415C346.3 39.0015 346.84 39.5681 347.226 40.3415C347.613 41.1015 347.806 42.0815 347.806 43.2815C347.806 44.4681 347.613 45.4481 347.226 46.2215C346.84 46.9815 346.3 47.5481 345.606 47.9215C344.913 48.2948 344.113 48.4815 343.206 48.4815ZM343.826 45.9215C344.373 45.9215 344.86 45.8148 345.286 45.6015C345.713 45.3748 346.046 45.0615 346.286 44.6615C346.526 44.2615 346.646 43.8015 346.646 43.2815C346.646 42.7481 346.526 42.2881 346.286 41.9015C346.046 41.5015 345.713 41.1948 345.286 40.9815C344.86 40.7548 344.373 40.6415 343.826 40.6415C343.28 40.6415 342.793 40.7548 342.366 40.9815C341.94 41.1948 341.6 41.5015 341.346 41.9015C341.106 42.2881 340.986 42.7481 340.986 43.2815C340.986 43.8015 341.106 44.2615 341.346 44.6615C341.6 45.0615 341.94 45.3748 342.366 45.6015C342.793 45.8148 343.28 45.9215 343.826 45.9215Z" fill="white"/>
</svg>
